<!-- This Source Code Form is subject to the terms of the Mozilla Public
   - License, v. 2.0. If a copy of the MPL was not distributed with this
   - file, You can obtain one at http://mozilla.org/MPL/2.0/. -->
<svg width="16" height="16" viewBox="0 0 24 24" xmlns="http://www.w3.org/2000/svg">
    <path fill="context-fill" fill-opacity="context-fill-opacity" fill-rule="evenodd" clip-rule="evenodd"
        d="M13 0C14.6569 0 16 1.34315 16 3V6H21C22.6569 6 24 7.34315 24 9V21C24 22.6569 22.6569 24 21 24H11C9.34315 24 8 22.6569 8 21V18H3C1.34315 18 0 16.6569 0 15V3C0 1.34315 1.34315 0 3 0H13ZM13 6H11C9.34315 6 8 7.34315 8 9V14.9999C7.9945 15 7.98899 15 7.98346 15H4C3.44772 15 3 14.5523 3 14V4C3 3.44772 3.44772 3 4 3H12C12.5523 3 13 3.44772 13 4V6ZM12 9C11.4477 9 11 9.44772 11 10V20C11 20.5523 11.4477 21 12 21H20C20.5523 21 21 20.5523 21 20V10C21 9.44772 20.5523 9 20 9H12Z" />
</svg>